<svg width="360" height="360" viewBox="0 0 360 360" fill="none" xmlns="http://www.w3.org/2000/svg">
<circle cx="180" cy="180" r="180" fill="#02D15C"/>
<path d="M270 190.787C269.856 193.413 268.697 195.884 266.768 197.676C264.839 199.466 262.291 200.44 259.659 200.39C257.026 200.34 254.518 199.27 252.657 197.405L226.295 175.728L111.477 267.799C108.326 270.005 104.32 270.592 100.672 269.383C97.0212 268.173 91.8264 262.979 90.6175 259.328C89.4084 255.68 89.9952 251.672 92.1993 248.523L184.27 133.705L162.593 107.343C160.73 105.482 159.66 102.972 159.61 100.341C159.56 97.7088 160.532 95.1614 162.324 93.2321C164.116 91.3028 166.584 90.1436 169.213 90L257.791 91.6774C260.679 91.5213 263.499 92.6015 265.545 94.6472C267.591 96.693 268.669 99.5109 268.513 102.4L270 190.787Z" fill="white"/>
</svg>
