<svg xmlns="http://www.w3.org/2000/svg" xmlns:xlink="http://www.w3.org/1999/xlink" width="16" height="16"><defs><linearGradient x1="50%" y1="100%" x2="50%" y2="-89.84375%" id="b"><stop stop-color="#82C51E" offset="0%"/><stop stop-color="#B3DC60" offset="100%"/></linearGradient><circle id="a" cx="8" cy="8" r="8"/></defs><g fill="none" fill-rule="evenodd"><mask id="c" fill="#fff"><use xlink:href="#a"/></mask><use fill="url(#b)" xlink:href="#a"/><path d="M.54576054 8l-1.89192789-1.86966991 1.07328708-1.06066018 1.89192789 1.86966992 1.89192789-1.86966992 1.07328708 1.06066018L2.6923347 8l1.89192789 1.86966991-1.07328708 1.06066019-1.89192789-1.86966993-1.89192789 1.86966993-1.07328708-1.06066019L.54576054 8z" fill="#FFF" fill-rule="nonzero" mask="url(#c)"/><path d="M10.6654762 10.8352V12H6.29809524v-1.1648h1.47333333v-3.822c0-.09706715.00175395-.19499951.00526191-.2938.00350795-.09880049.0087698-.19846616.01578571-.299L6.919 7.138c-.07717499.05893363-.15347185.09446661-.22889286.1066-.07542101.01213339-.14645601.01213339-.21310714 0s-.12628545-.0346665-.17890476-.0676c-.05261931-.0329335-.09120623-.06673316-.11576191-.1014l-.51566666-.676 2.38890476-1.9812h1.34704762v6.4168h1.26285715zm5.6573571-2.626c0 .66213664-.0719119 1.23586424-.2157381 1.7212-.1438261.4853358-.3428995.8874651-.5972262 1.2064-.2543266.3189349-.5560061.5563992-.9050476.7124-.3490414.1560008-.7270178.234-1.1339404.234-.4069227 0-.7831451-.0779992-1.1286786-.234-.3455335-.1560008-.6445821-.3934651-.8971548-.7124s-.4498921-.7210642-.5919643-1.2064c-.1420721-.48533576-.2131071-1.05906336-.2131071-1.7212 0-.66213664.071035-1.23586424.2131071-1.7212.1420722-.48533576.3393916-.88746507.5919643-1.2064.2525727-.31893493.5516213-.55553256.8971548-.7098.3455335-.15426744.7217559-.2314 1.1286786-.2314.4069226 0 .784899.07713256 1.1339404.2314.3490415.15426744.650721.39086507.9050476.7098.2543267.31893493.4534001.72106424.5972262 1.2064.1438262.48533576.2157381 1.05906336.2157381 1.7212zm-1.6838095 0c0-.52346928-.0333251-.95246499-.0999762-1.287-.0666511-.33453501-.1552256-.59713238-.2657262-.7878-.1105005-.19066762-.235908-.32153298-.3762262-.3926-.1403181-.07106702-.2823881-.1066-.4262142-.1066-.1438262 0-.2850192.03553298-.4235834.1066-.1385642.07106702-.2613407.20193238-.3683333.3926s-.1929362.45326499-.2578333.7878c-.0648972.33453501-.0973453.76353072-.0973453 1.287 0 .52693597.0324481.95679834.0973453 1.2896.0648971.33280166.1508407.595399.2578333.7878.1069926.192401.2297691.324133.3683333.3952.1385642.071067.2797572.1066.4235834.1066.1438261 0 .2858961-.035533.4262142-.1066.1403182-.071067.2657257-.202799.3762262-.3952.1105006-.192401.1990751-.45499834.2657262-.7878.0666511-.33280166.0999762-.76266403.0999762-1.2896z" fill="#FFF" mask="url(#c)"/></g></svg>