<svg xmlns="http://www.w3.org/2000/svg" width="16" height="16"><defs><linearGradient x1="50%" y1="-107.617188%" x2="50%" y2="100%" id="a"><stop stop-color="#FF8B8D" offset="0%"/><stop stop-color="#FF4D4F" offset="100%"/></linearGradient></defs><g fill="none" fill-rule="evenodd"><circle fill="url(#a)" cx="8" cy="8" r="8"/><path d="M2.13933983 8L.26966991 6.13033009 1.3303301 5.06966991 3.2 6.93933983l1.86966991-1.86966992L6.13033009 6.1303301 4.26066017 8l1.86966992 1.86966991-1.06066018 1.06066018L3.2 9.06066017l-1.86966991 1.86966992L.26966991 9.86966991 2.13933983 8z" fill="#FFF" fill-rule="nonzero"/><path d="M7.2 11.4601227c0-.1159742.02438677-.2339462.07316103-.3539196.04877427-.1199733.12617575-.2259482.23220676-.3179277l2.73558651-2.58541241c.4962251-.467896.8503634-.87779874 1.0624254-1.22972052.2375095-.38791378.3562624-.79381747.3562624-1.21772325 0-.38391466-.1060294-.67784492-.3180914-.88179959-.212062-.20395466-.511065-.30593047-.8970179-.30593047-.3265755 0-.60861379.0859796-.84612326.25794138-.23750947.16796267-.39443302.37991237-.47077535.63585549-.0636186.16396355-.14314067.28193556-.23856858.35391956-.09542792.071984-.22160293.10797546-.37852883.10797546-.07210109 0-.15268345-.00599858-.2417495-.01799591l-.92882704-.15596455c.06361861-.41590756.18873333-.78482003.37534791-1.10674847.18661459-.32192844.42199991-.59086463.70616302-.80681663.27568064-.21195289.59376891-.37091517.95427436-.47689162C9.73625097 3.25298743 10.1264393 3.2 10.5463221 3.2c.4283653 0 .8227947.05998577 1.1833002.1799591.3605054.11997333.6701113.28993301.928827.50988412.2587157.21995111.4569907.48488825.594831.79481936.1378403.30993111.2067595.64885069.2067595 1.01676891 0 .30793156-.046653.596863-.1399603.866803-.0933073.26994-.2269043.53487714-.4007952.79481936-.1526847.22395022-.3297538.44389804-.5312127.65985004-.201459.215952-.4527487.46989174-.7538768.76182685L9.67475149 10.6743013c.46229521-.1279716.87581001-.1919564 1.24055671-.1919564h2.0739562c.1908558 0 .3403573.0489884.448509.1469666.1081516.0979782.1622266.2309467.1622266.3989094V12H7.2v-.5398773z" fill="#FFF"/></g></svg>