<svg xmlns="http://www.w3.org/2000/svg" width="16" height="16"><defs><linearGradient x1="50%" y1="100%" x2="50%" y2="-64.5703125%" id="a"><stop stop-color="#FF9C18" offset="0%"/><stop stop-color="#FFC55B" offset="100%"/></linearGradient></defs><g fill="none" fill-rule="evenodd"><circle fill="url(#a)" cx="8" cy="8" r="8"/><path d="M2.13933983 8L.26966991 6.13033009 1.3303301 5.06966991 3.2 6.93933983l1.86966991-1.86966992L6.13033009 6.1303301 4.26066017 8l1.86966992 1.86966991-1.06066018 1.06066018L3.2 9.06066017l-1.86966991 1.86966992L.26966991 9.86966991 2.13933983 8z" fill="#FFF" fill-rule="nonzero"/><path d="M9.68065173 12.8c-.49803372 0-.97134874-.1079744-1.41995927-.3239264-.40298911-.1879582-.75654973-.4338998-1.06069246-.7378323l.48472505-.6958418c.10264817-.1479672.23570862-.2219496.39918534-.2219496.10644995 0 .20719572.0319924.30224032.0959782.02281071.0119973.05702625.0339921.10264766.065985.25852132.1679627.48282322.2879342.67291242.3599182.15967494.0639858.36306734.0959782.6101833.0959782.47522301 0 .84208971-.1619616 1.10061101-.4858896.2357106-.2959342.3535641-.6938398.3535641-1.19372869 0-.45589867-.1235561-.80581564-.3706721-1.04976142-.2471159-.24394578-.6025774-.36591684-1.06639506-.36591684-.38017841 0-.76605371.07598197-1.15763748.2279482l-.97515275-.28793457L8.35193483 4h4.15152747v.69584185c0 .24394578-.0684311.42990166-.2052953.55787321-.1520714.14796712-.3896793.22194956-.712831.22194956H9.44684318l-.26802444 1.64362645c.32315165-.06798489.64059586-.10197682.95234216-.10197682.421998 0 .8002699.0669841 1.1348269.20095433.334557.13397022.6196865.32492491.8553971.5728698.2243053.23594755.3934821.51588113.5075357.83980913.1140535.323928.1710794.67384498.1710794 1.04976142 0 .45589867-.0760345.87479927-.2281059 1.25671437-.1520714.3819151-.3687698.7128366-.6501018.9927744-.2813321.2799378-.6130328.4948868-.9951121.6448534-.3820793.1499667-.7974179.2249489-1.24602847.2249489z" fill="#FFF"/></g></svg>