<svg width="16" height="16" viewBox="0 0 16 16" fill="none" xmlns="http://www.w3.org/2000/svg">
<path fill-rule="evenodd" clip-rule="evenodd" d="M8 16C12.4183 16 16 12.4183 16 8C16 3.58173 12.4183 0 8 0C3.58173 0 0 3.58173 0 8C0 12.4183 3.58173 16 8 16Z" fill="#A168F7"/>
<path fill-rule="evenodd" clip-rule="evenodd" d="M9.71298 10.8612C9.43221 10.8612 9.29183 10.8612 9.2046 10.774C9.11738 10.6868 9.11738 10.5464 9.11738 10.2656V5.73427C9.11738 5.4535 9.11738 5.31312 9.2046 5.22589C9.29183 5.13867 9.43221 5.13867 9.71298 5.13867H9.83392C10.1147 5.13867 10.2551 5.13867 10.3423 5.22589C10.4295 5.31312 10.4295 5.4535 10.4295 5.73427V9.67354H12.3113C12.5903 9.67354 12.7299 9.67354 12.8169 9.75979C12.8176 9.76044 12.8182 9.76108 12.8189 9.76174C12.9051 9.84879 12.9051 9.98832 12.9051 10.2674V10.2674C12.9051 10.5464 12.9051 10.686 12.8189 10.773C12.8182 10.7737 12.8176 10.7743 12.8169 10.775C12.7299 10.8612 12.5903 10.8612 12.3113 10.8612H9.71298Z" fill="white"/>
<path fill-rule="evenodd" clip-rule="evenodd" d="M4.23359 10.8612C3.73387 10.8612 3.48401 10.8612 3.40044 10.7015C3.31686 10.5417 3.45936 10.3365 3.74435 9.92596L5.1029 7.96915L3.79534 6.0723C3.51272 5.66231 3.37141 5.45732 3.45509 5.29799C3.53878 5.13867 3.78775 5.13867 4.28571 5.13867H4.43843C4.59458 5.13867 4.67266 5.13867 4.73853 5.17396C4.80441 5.20924 4.84768 5.27423 4.93421 5.40422L5.91665 6.87997L6.88427 5.40722C6.97061 5.2758 7.01379 5.21009 7.07998 5.17438C7.14617 5.13867 7.22479 5.13867 7.38204 5.13867H7.54085C8.03881 5.13867 8.28779 5.13867 8.37147 5.29799C8.45516 5.45732 8.31385 5.66231 8.03123 6.0723L6.72358 7.96927L8.07709 9.92691C8.3607 10.3371 8.5025 10.5422 8.41887 10.7017C8.33523 10.8612 8.08588 10.8612 7.58719 10.8612H7.43615C7.27994 10.8612 7.20184 10.8612 7.13595 10.8259C7.07006 10.7906 7.02679 10.7256 6.94027 10.5955L5.91698 9.05744L4.88624 10.597C4.79963 10.7263 4.75633 10.791 4.69059 10.8261C4.62485 10.8612 4.54701 10.8612 4.39133 10.8612H4.23359Z" fill="white"/>
</svg>
